<?xml version="1.0" encoding="UTF-8"?>
<svg viewBox="0 0 214 214" version="1.1" xmlns="http://www.w3.org/2000/svg" xmlns:xlink="http://www.w3.org/1999/xlink">
    <!-- Generator: Sketch 49.3 (51167) - http://www.bohemiancoding.com/sketch -->
    <title>Group</title>
    <desc>Created with Sketch.</desc>
    <defs></defs>
    <g id="Page-1" stroke="none" stroke-width="1" fill="none" fill-rule="evenodd">
        <g id="loot_logo" fill-rule="nonzero">
            <g id="Group">
                <circle id="Oval" fill="#00d8d4" cx="106.64" cy="106.64" r="106.64"></circle>
                <path d="M103.91,171.66 C103.77,170.86 100.27,152.02 78.51,152.02 C72.6189068,152.158756 66.9391386,149.823015 62.85,145.58 C58.36,140.96 55.29,134.04 53.74,125.02 C53.0477001,121.058054 52.7130194,117.041886 52.74,113.02 L52.74,112.02 L57.74,112.09 L57.74,113.09 C57.74,116.5 58.62,119 60.35,120.55 C61.9778045,121.861794 64.0202664,122.549707 66.11,122.49 C66.3397394,122.505485 66.5702606,122.505485 66.8,122.49 L67.8,122.4 L67.92,123.4 L68.4,127.4 L67.4,127.52 C66.9847852,127.563385 66.5674614,127.583417 66.15,127.58 C63.6459542,127.598354 61.1784591,126.978899 58.98,125.78 C60.07,131.22 62.22,137.78 66.44,142.11 C69.5803174,145.347283 73.9312732,147.123924 78.44,147.01 C91.82,147.01 99.44,153.19 103.8,159.4 L103.8,91.9 L71.05,91.9 L71.05,95.04 L65.98,95.04 L65.98,83.62 L71.05,83.62 L71.05,86.77 L103.87,86.77 L103.87,66.89 C97.210833,65.5848277 92.6310116,59.4367433 93.2866653,52.6826262 C93.9423191,45.928509 99.6191338,40.7760843 106.405,40.7760843 C113.190866,40.7760843 118.867681,45.928509 119.523335,52.6826262 C120.178988,59.4367433 115.599167,65.5848277 108.94,66.89 L108.94,86.77 L141.76,86.77 L141.76,83.62 L146.83,83.62 L146.83,94.98 L141.76,94.98 L141.76,91.84 L108.94,91.84 L108.94,160.02 C113.24,153.46 120.94,146.95 134.76,146.95 C139.268052,147.060243 143.617588,145.284182 146.76,142.05 C150.97,137.71 153.12,131.16 154.21,125.72 C152.011864,126.919726 149.544151,127.539235 147.04,127.52 C146.622555,127.522624 146.205275,127.502594 145.79,127.46 L144.79,127.34 L145.37,122.34 L146.37,122.47 C146.579694,122.48604 146.790306,122.48604 147,122.47 C149.11474,122.50792 151.175278,121.799832 152.82,120.47 C154.55,118.93 155.42,116.47 155.42,113.03 L155.42,112.03 L160.42,111.96 L160.42,112.96 C160.441345,116.981669 160.106706,120.997335 159.42,124.96 C157.87,133.96 154.8,140.9 150.3,145.52 C146.215111,149.769263 140.532468,152.106187 134.64,151.96 C125.45,151.96 118.38,155.27 113.64,161.79 C111.511402,164.71846 110.010089,168.054711 109.23,171.59 L109.06,172.59 L106.65,172.19 L106.49,172.19 L104.08,172.6 L103.91,171.66 Z M106.41,45.86 C103.128904,45.8559543 100.168636,47.8293252 98.9102109,50.859502 C97.6517856,53.8896788 98.3431722,57.3795734 100.661827,59.701091 C102.980483,62.0226087 106.469521,62.7183007 109.501249,61.463615 C112.532976,60.2089292 114.509998,57.2510983 114.51,53.97 C114.504505,49.4971505 110.882839,45.8710135 106.41,45.86 Z" id="Shape" fill="#1b2243"></path>
                <path d="M106.4,41.77 C112.84645,41.7360721 118.201018,46.7349483 118.609584,53.1685275 C119.018149,59.6021066 114.338955,65.2381785 107.94,66.02 L107.94,87.77 L142.76,87.77 L142.76,84.62 L145.83,84.62 L145.83,93.98 L142.76,93.98 L142.76,90.84 L107.94,90.84 L107.94,163.77 C111.33,157.01 118.85,147.96 134.76,147.96 C139.542748,148.088196 144.160229,146.205657 147.49,142.77 C152.43,137.71 154.65,129.84 155.65,123.49 L155.55,123.58 C153.167747,125.559464 150.157019,126.623326 147.06,126.58 C146.682435,126.584319 146.304985,126.564277 145.93,126.52 L146.11,125 L146.28,123.48 C146.28,123.48 146.58,123.48 147.04,123.48 C149.396164,123.531103 151.694671,122.748407 153.53,121.27 C155.47,119.53 156.46,116.77 156.46,113.08 L159.53,113.08 C159.549779,117.048566 159.215117,121.01097 158.53,124.92 C157.02,133.74 154.04,140.48 149.69,144.92 C145.773366,148.981226 140.330149,151.209316 134.69,151.06 C125.16,151.06 117.82,154.51 112.9,161.3 C110.679172,164.355981 109.116261,167.839331 108.31,171.53 L106.8,171.27 L106.33,171.27 L104.82,171.53 C104.68,170.69 101.06,151.06 78.44,151.06 C72.8200827,151.194842 67.4009819,148.967715 63.5,144.92 C59.15,140.45 56.17,133.71 54.65,124.92 C53.9617349,121.011378 53.6270485,117.048691 53.65,113.08 L56.72,113.08 C56.72,116.79 57.72,119.54 59.66,121.28 C61.4749022,122.752141 63.7536815,123.531817 66.09,123.48 C66.58,123.48 66.88,123.48 66.89,123.48 L67.25,126.48 C66.8716873,126.524513 66.4908953,126.544555 66.11,126.54 C63.0129806,126.583326 60.0022527,125.519464 57.62,123.54 L57.52,123.45 C58.52,129.8 60.75,137.67 65.68,142.73 C69.0249622,146.195439 73.6756173,148.090553 78.49,147.95 C93.72,147.95 101.25,156.24 104.85,162.87 L104.85,90.87 L70.05,90.87 L70.05,94.01 L66.98,94.01 L66.98,84.65 L70.05,84.65 L70.05,87.77 L104.87,87.77 L104.87,66.04 C98.3852112,65.3545822 93.5930395,59.6797212 94.0033085,53.171729 C94.4135775,46.6637367 99.8804736,41.6356155 106.4,41.77 Z M106.4,63.06 C110.085558,63.0640456 113.410463,60.8470322 114.823669,57.4431807 C116.236875,54.0393293 115.459933,50.1193168 112.855279,47.5118012 C110.250626,44.9042855 106.331469,44.123038 102.926068,45.532505 C99.520666,46.9419719 97.3000022,50.2644394 97.3,53.95 C97.3054979,58.9751328 101.374876,63.048983 106.4,63.06 Z M106.4,39.77 C99.2517951,39.7566903 93.2129528,45.0696399 92.31569,52.1613203 C91.4184272,59.2530006 95.9437333,65.9025611 102.87,67.67 L102.87,85.77 L72.05,85.77 L72.05,82.62 L64.98,82.62 L64.98,95.98 L72.05,95.98 L72.05,92.84 L102.87,92.84 L102.87,156.39 C98.18,150.86 90.61,145.95 78.51,145.95 C74.2655597,146.065646 70.1669208,144.397174 67.21,141.35 C63.64,137.69 61.61,132.35 60.45,127.49 C62.2917969,128.163186 64.2390677,128.501842 66.2,128.49 C66.6576897,128.495776 67.1152826,128.472395 67.57,128.42 L69.57,128.19 L69.33,126.19 L68.97,123.14 L68.75,121.23 L66.82,121.38 C66.6101915,121.392684 66.3998085,121.392684 66.19,121.38 C64.3460103,121.421431 62.5443486,120.824409 61.09,119.69 C59.58,118.35 58.82,116.09 58.82,112.98 L58.82,110.98 L56.82,110.98 L53.76,110.98 L51.76,110.98 L51.71,112.98 C51.6723756,117.078535 52.0070838,121.172017 52.71,125.21 C54.3,134.43 57.46,141.53 62.09,146.29 C66.3709483,150.733993 72.3214267,153.175866 78.49,153.02 C99.42,153.02 102.77,171.02 102.9,171.83 L103.24,173.83 L105.24,173.5 L106.59,173.27 L106.72,173.27 L108.07,173.5 L110.07,173.83 L110.41,171.83 C111.1602,168.442726 112.600123,165.246301 114.64,162.44 C119.17,156.2 125.95,153.03 134.81,153.03 C140.974695,153.175014 146.917269,150.726151 151.19,146.28 C155.83,141.52 158.99,134.42 160.57,125.2 C161.264155,121.160903 161.598798,117.06821 161.57,112.97 L161.51,110.97 L159.51,110.97 L156.44,110.97 L154.44,110.97 L154.44,112.97 C154.44,116.07 153.68,118.32 152.18,119.67 C150.707775,120.81526 148.884661,121.415899 147.02,121.37 C146.74,121.37 146.55,121.37 146.49,121.37 L144.49,121.1 L144.26,123.1 L144.08,124.62 L143.9,126.14 L143.67,128.14 L145.67,128.37 C146.121387,128.422187 146.57564,128.445568 147.03,128.44 C148.994128,128.451107 150.944552,128.112492 152.79,127.44 C151.63,132.28 149.59,137.64 146.03,141.3 C143.068597,144.346651 138.967213,146.014764 134.72,145.9 C122.02,145.9 114.36,151.48 109.9,156.9 L109.9,92.84 L140.72,92.84 L140.72,95.98 L147.79,95.98 L147.79,82.62 L140.72,82.62 L140.72,85.77 L109.94,85.77 L109.94,67.69 C116.868157,65.9221259 121.393778,59.2696262 120.493769,52.1763389 C119.593761,45.0830517 113.550133,39.7715965 106.4,39.79 L106.4,39.77 Z M106.4,61.06 C103.520649,61.0680881 100.920692,59.3387637 99.8150725,56.6801304 C98.7094533,54.0214971 99.3164825,50.9585152 101.352499,48.9224988 C103.388515,46.8864825 106.451497,46.2794533 109.11013,47.3850725 C111.768764,48.4906918 113.498088,51.0906494 113.49,53.97 C113.484492,57.8944608 110.304461,61.074492 106.38,61.08 L106.4,61.06 Z" id="Shape" fill="#1b2243"></path>
            </g>
        </g>
    </g>
</svg>
